<svg xmlns="http://www.w3.org/2000/svg" fill="none" viewBox="0 0 24 24"><path fill="#fff" d="M12.155 6.896c-.968 0-2.467-1.078-4.046-1.04-2.082.027-3.992 1.183-5.067 3.014-2.162 3.675-.557 9.103 1.552 12.09 1.035 1.454 2.255 3.09 3.874 3.039 1.552-.065 2.135-.987 4.02-.987 1.87 0 2.4.987 4.045.948 1.672-.026 2.733-1.48 3.754-2.948 1.181-1.688 1.672-3.325 1.698-3.416-.04-.012-3.25-1.22-3.29-4.856C18.67 9.7 21.23 8.246 21.35 8.18c-1.46-2.09-3.701-2.324-4.484-2.376-2.043-.156-3.754 1.09-4.71 1.09zm3.45-3.065c.862-1.013 1.432-2.428 1.273-3.831-1.234.052-2.72.805-3.608 1.818-.796.896-1.486 2.338-1.3 3.714 1.366.104 2.772-.688 3.635-1.701"/></svg>