<svg width="493" height="103" viewBox="0 0 493 103" fill="none" xmlns="http://www.w3.org/2000/svg">
<path d="M51.5 0H311.9C340.34 0 363.4 23.06 363.4 51.5C363.4 79.94 340.34 103 311.9 103H51.5C23.06 103 0 79.94 0 51.5C0 23.06 23.06 0 51.5 0Z" fill="#A6FF00"/>
<path fill-rule="evenodd" clip-rule="evenodd" d="M120.02 60.73C124.48 60.73 127.75 58.09 128.21 54.18H124.81C124.34 56.35 122.48 57.73 120.03 57.73C116.73 57.73 114.68 54.98 114.68 50.58C114.68 46.19 116.73 43.44 120.01 43.44C122.45 43.44 124.31 44.95 124.79 47.28H128.19C127.79 43.27 124.4 40.43 120 40.43C114.52 40.43 111.13 44.3 111.13 50.58C111.14 56.85 114.54 60.73 120.02 60.73ZM131.96 60.25H135.28V51.74C135.28 49.6 136.5 48.16 138.68 48.16C140.61 48.16 141.63 49.31 141.63 51.58V60.25H144.95V50.8C144.95 47.32 143.05 45.33 139.91 45.33C137.73 45.33 136.16 46.32 135.46 47.97H135.22V39.93H131.95L131.96 60.25ZM150.72 43.15C151.81 43.14 152.68 42.26 152.68 41.17C152.676 40.6478 152.466 40.1484 152.095 39.7811C151.724 39.4137 151.222 39.2084 150.7 39.21C149.62 39.22 148.74 40.1 148.74 41.18C148.75 42.28 149.63 43.16 150.72 43.15ZM149.08 60.25H152.39V45.61H149.08V60.25ZM156.77 60.25H160.09V39.94H156.77V60.25ZM164.56 60.25H167.88V39.94H164.56V60.25ZM189.31 60.25L196 40.92H192.31L187.49 56.3H187.26L182.4 40.92H178.58L185.33 60.25H189.31ZM200.81 43.15C201.9 43.14 202.77 42.26 202.77 41.17C202.766 40.6478 202.556 40.1484 202.185 39.7811C201.814 39.4137 201.312 39.2084 200.79 39.21C199.71 39.22 198.83 40.1 198.83 41.18C198.83 42.28 199.72 43.16 200.81 43.15ZM199.16 60.25H202.47V45.61H199.16V60.25ZM214.87 60.49C218.57 60.49 220.89 57.58 220.89 52.93C220.89 48.25 218.59 45.36 214.87 45.36C212.86 45.36 211.17 46.34 210.41 47.93H210.18V39.93H206.86V60.24H210.06V57.92H210.29C211.12 59.54 212.82 60.49 214.87 60.49V60.49ZM213.82 48.14C216.08 48.14 217.46 49.95 217.46 52.94C217.46 55.93 216.09 57.74 213.82 57.74C211.55 57.74 210.12 55.9 210.12 52.94C210.12 49.98 211.56 48.14 213.82 48.14ZM233.91 56.24C233.43 57.34 232.29 57.95 230.64 57.95C228.46 57.95 227.05 56.4 226.97 53.92V53.75H237.21V52.69C237.21 48.09 234.7 45.32 230.52 45.32C226.27 45.32 223.63 48.28 223.63 52.98C223.63 57.67 226.23 60.54 230.54 60.54C234 60.54 236.45 58.88 237.05 56.24H233.91ZM230.51 47.91C232.51 47.91 233.82 49.32 233.89 51.54H226.99C227.13 49.34 228.52 47.91 230.51 47.91ZM240.35 49.79C240.35 51.99 241.68 53.27 244.49 53.92L247.09 54.52C248.49 54.84 249.11 55.38 249.11 56.21C249.11 57.32 247.94 58.09 246.27 58.09C244.61 58.09 243.58 57.42 243.26 56.33H239.98C240.23 58.97 242.54 60.55 246.2 60.55C249.86 60.55 252.44 58.69 252.44 55.89C252.44 53.73 251.14 52.54 248.34 51.9L245.75 51.32C244.28 50.97 243.58 50.45 243.58 49.62C243.58 48.53 244.72 47.8 246.23 47.8C247.78 47.8 248.76 48.47 249 49.5H252.12C251.88 46.86 249.69 45.33 246.21 45.33C242.76 45.33 240.35 47.16 240.35 49.79V49.79Z" fill="black"/>
<path d="M441.5 103C469.943 103 493 79.9427 493 51.5C493 23.0573 469.943 0 441.5 0C413.057 0 390 23.0573 390 51.5C390 79.9427 413.057 103 441.5 103Z" fill="#A6FF00"/>
<path fill-rule="evenodd" clip-rule="evenodd" d="M423.75 8.6799C424.63 8.3199 425.63 8.7299 425.99 9.6099L426.65 11.1999C427.02 12.0699 426.62 13.0799 425.74 13.4499C425.533 13.5387 425.31 13.5856 425.084 13.5879C424.859 13.5902 424.635 13.5479 424.426 13.4633C424.216 13.3787 424.026 13.2536 423.866 13.0951C423.705 12.9366 423.577 12.7479 423.49 12.5399C423.49 12.5299 423.48 12.5199 423.48 12.5099L422.82 10.9199C422.45 10.0499 422.87 9.0499 423.75 8.6799V8.6799ZM457.28 89.5599C458.16 89.1999 459.16 89.6099 459.52 90.4899L460.18 92.0799C460.54 92.9599 460.13 93.9599 459.25 94.3199C458.37 94.6799 457.37 94.2699 457.01 93.3899L456.35 91.7999C455.99 90.9299 456.41 89.9199 457.28 89.5599ZM484.28 33.6799C484.64 34.5599 484.23 35.5599 483.35 35.9299L481.77 36.5899C481.35 36.7526 480.884 36.7445 480.47 36.5671C480.057 36.3898 479.729 36.0575 479.558 35.6414C479.386 35.2254 479.385 34.7587 479.553 34.3415C479.722 33.9244 480.048 33.5899 480.46 33.4099L482.04 32.7499C482.92 32.3799 483.92 32.7999 484.28 33.6799C484.28 33.6699 484.28 33.6699 484.28 33.6799V33.6799ZM403.47 67.3399C403.83 68.2199 403.42 69.2199 402.54 69.5899L400.96 70.2499C400.08 70.6099 399.07 70.1899 398.71 69.3099C398.35 68.4299 398.77 67.4199 399.65 67.0599L401.23 66.3999C402.1 66.0499 403.1 66.4599 403.47 67.3399ZM459.22 8.6699C460.1 9.0299 460.51 10.0399 460.15 10.9099L459.49 12.4999C459.316 12.9203 458.983 13.2544 458.563 13.4288C458.143 13.6032 457.67 13.6036 457.25 13.4299C456.83 13.2562 456.495 12.9226 456.321 12.5025C456.147 12.0824 456.146 11.6103 456.32 11.1899L456.98 9.5999C457.34 8.7299 458.35 8.3099 459.22 8.6699ZM425.75 89.5699C426.63 89.9299 427.04 90.9399 426.68 91.8099L426.02 93.3999C425.934 93.608 425.808 93.7972 425.649 93.9566C425.49 94.116 425.301 94.2425 425.093 94.3288C424.885 94.4152 424.662 94.4597 424.436 94.4599C424.211 94.4601 423.988 94.4159 423.78 94.3299C423.572 94.2439 423.383 94.1177 423.223 93.9586C423.064 93.7995 422.937 93.6105 422.851 93.4025C422.765 93.1945 422.72 92.9715 422.72 92.7463C422.72 92.5211 422.764 92.298 422.85 92.0899L423.51 90.4999C423.595 90.2913 423.721 90.1017 423.88 89.942C424.039 89.7822 424.228 89.6555 424.437 89.5691C424.645 89.4826 424.868 89.4382 425.093 89.4384C425.319 89.4385 425.542 89.4832 425.75 89.5699V89.5699ZM484.36 69.1499C484 70.0299 482.99 70.4499 482.11 70.0899L480.52 69.4399C480.312 69.3517 480.123 69.2231 479.964 69.0616C479.805 68.9002 479.68 68.7089 479.595 68.4989C479.511 68.289 479.469 68.0643 479.471 67.838C479.474 67.6116 479.521 67.388 479.61 67.1799C479.98 66.3199 480.97 65.9099 481.84 66.2599L483.43 66.9099C484.3 67.2599 484.72 68.2699 484.36 69.1499C484.36 69.1399 484.36 69.1499 484.36 69.1499V69.1499ZM403.41 35.8099C403.05 36.6899 402.04 37.1099 401.16 36.7499L399.57 36.0999C399.362 36.0117 399.173 35.8831 399.014 35.7216C398.855 35.5602 398.73 35.3689 398.645 35.159C398.561 34.949 398.519 34.7243 398.521 34.498C398.524 34.2716 398.571 34.048 398.66 33.8399C399.03 32.9799 400.02 32.5699 400.89 32.9199L402.48 33.5699C403.35 33.9299 403.77 34.9299 403.41 35.8099ZM441.5 87.5499C442.64 87.5499 443.56 88.4699 443.56 89.6099V95.7899C443.56 96.9299 442.64 97.8499 441.5 97.8499C440.36 97.8499 439.44 96.9299 439.44 95.7899V89.6099C439.44 88.4699 440.36 87.5499 441.5 87.5499V87.5499ZM441.5 5.1499C442.64 5.1499 443.56 6.0699 443.56 7.2099V13.3899C443.56 14.5299 442.64 15.4499 441.5 15.4499C440.36 15.4499 439.44 14.5299 439.44 13.3899V7.2099C439.44 6.0699 440.36 5.1499 441.5 5.1499V5.1499ZM397.21 49.4399H403.39C404.53 49.4399 405.45 50.3599 405.45 51.4999C405.45 52.6399 404.53 53.5599 403.39 53.5599H397.21C396.07 53.5599 395.15 52.6399 395.15 51.4999C395.15 50.3599 396.07 49.4399 397.21 49.4399ZM479.61 49.4399H485.79C486.93 49.4399 487.85 50.3599 487.85 51.4999C487.85 52.6399 486.93 53.5599 485.79 53.5599H479.61C478.47 53.5599 477.55 52.6399 477.55 51.4999C477.55 50.3599 478.47 49.4399 479.61 49.4399ZM416.01 76.9899C416.81 77.7899 416.81 79.0999 416.01 79.8999L411.64 84.2699C410.83 85.0699 409.53 85.0699 408.73 84.2599C407.93 83.4599 407.93 82.1599 408.73 81.3499L413.1 76.9799C413.9 76.1899 415.2 76.1899 416.01 76.9899ZM474.27 18.7299C475.07 19.5299 475.07 20.8399 474.27 21.6399L469.9 26.0099C469.09 26.8099 467.79 26.8099 466.99 25.9999C466.19 25.1999 466.19 23.8999 466.99 23.0899L471.36 18.7199C472.17 17.9199 473.47 17.9199 474.27 18.7299ZM411.64 18.7299L416.01 23.0999C416.385 23.4881 416.592 24.0079 416.587 24.5474C416.583 25.0869 416.366 25.603 415.985 25.9845C415.603 26.366 415.087 26.5824 414.547 26.5872C414.008 26.5919 413.488 26.3846 413.1 26.0099L408.73 21.6399C408.355 21.2517 408.148 20.7319 408.153 20.1924C408.157 19.6529 408.374 19.1368 408.755 18.7553C409.137 18.3738 409.653 18.1574 410.193 18.1526C410.732 18.1479 411.252 18.3552 411.64 18.7299V18.7299ZM469.9 76.9899L474.27 81.3599C475.07 82.1599 475.07 83.4699 474.27 84.2699C473.47 85.0699 472.16 85.0699 471.36 84.2699L466.99 79.8999C466.19 79.0999 466.19 77.7899 466.99 76.9899C467.79 76.1899 469.1 76.1899 469.9 76.9899ZM438.77 70.6799V60.9999H436.74L433.83 68.1799H433.71L430.8 60.9999H428.77V70.6799H430.38V63.8199H430.47L433.15 70.3799H434.38L437.06 63.8199H437.15V70.6799H438.77ZM442.96 70.6799V60.9999H441.23V70.6799H442.96ZM447.08 70.6799V64.0099H447.19L451.94 70.6799H453.44V60.9999H451.78V67.6699H451.67L446.92 60.9999H445.42V70.6799H447.08ZM431.49 46.6499H433.61C435.7 46.6499 436.97 47.6899 436.97 49.3999C436.97 51.0399 435.6 52.1499 433.65 52.1499C431.69 52.1499 430.36 51.1399 430.24 49.5699H427.34C427.48 52.6299 430 54.6399 433.69 54.6399C437.35 54.6399 440.07 52.5299 440.07 49.6199C440.07 47.3099 438.63 45.8199 436.33 45.4699V45.2699C438.13 44.7899 439.4 43.4399 439.42 41.3999C439.43 38.9699 437.4 36.8699 433.8 36.8699C430.13 36.8699 427.83 38.9499 427.67 41.9199H430.51C430.64 40.2299 431.79 39.2899 433.63 39.2899C435.43 39.2899 436.49 40.3899 436.49 41.7899C436.49 43.3299 435.29 44.4099 433.56 44.4099H431.49V46.6499ZM449.46 54.6299C453.51 54.6299 455.91 51.3599 455.91 45.7499C455.91 40.1299 453.47 36.8499 449.46 36.8499C445.43 36.8499 442.99 40.1199 442.99 45.7199C442.99 51.3399 445.39 54.6299 449.46 54.6299V54.6299ZM449.46 52.1699C447.31 52.1699 446.06 49.9399 446.06 45.7199C446.06 41.5299 447.34 39.3099 449.46 39.3099C451.58 39.3099 452.85 41.5199 452.85 45.7199C452.85 49.9599 451.6 52.1699 449.46 52.1699V52.1699Z" fill="black"/>
</svg>
