<svg width="363" height="103" viewBox="0 0 363 103" fill="none" xmlns="http://www.w3.org/2000/svg">
<path d="M51.5 0H311.5C339.94 0 363 23.06 363 51.5C363 79.94 339.94 103 311.5 103H51.5C23.06 103 0 79.94 0 51.5C0 23.06 23.06 0 51.5 0Z" fill="#A6FF00"/>
<path fill-rule="evenodd" clip-rule="evenodd" d="M158.13 59.02V50.73L165.5 38H161.38L156.38 47.02H156.13L151.12 38H147L154.37 50.73V59.02H158.13ZM173.07 59.34C177.84 59.34 180.73 56.22 180.73 51.05C180.73 45.91 177.82 42.79 173.07 42.79C168.33 42.79 165.41 45.92 165.41 51.05C165.41 56.22 168.29 59.34 173.07 59.34ZM173.07 56.38C170.55 56.38 169.11 54.43 169.11 51.06C169.11 47.69 170.55 45.74 173.07 45.74C175.58 45.74 177.02 47.69 177.02 51.06C177.02 54.43 175.59 56.38 173.07 56.38ZM191.38 65.08C196.03 65.08 198.97 62.76 198.97 59.11V43.1H195.49V45.65H195.24C194.37 43.92 192.47 42.84 190.3 42.84C186.23 42.84 183.71 46.02 183.71 50.9C183.71 55.68 186.22 58.79 190.24 58.79C192.45 58.79 194.19 57.86 195.11 56.14H195.36V59.17C195.36 61.19 193.92 62.39 191.44 62.39C189.46 62.39 188.18 61.68 187.94 60.55H184.31C184.6 63.29 187.29 65.08 191.38 65.08V65.08ZM191.38 55.91C188.86 55.91 187.43 53.96 187.43 50.87C187.43 47.8 188.86 45.84 191.38 45.84C193.89 45.84 195.42 47.79 195.42 50.88C195.42 53.96 193.9 55.91 191.38 55.91ZM207.94 59.28C210.02 59.28 211.77 58.38 212.66 56.83H212.91V59.02H216.39V48.14C216.39 44.78 214.09 42.79 209.99 42.79C206.2 42.79 203.56 44.57 203.27 47.35H206.68C207.02 46.26 208.15 45.66 209.81 45.66C211.76 45.66 212.81 46.55 212.81 48.14V49.51L208.7 49.76C204.82 49.98 202.65 51.65 202.65 54.51C202.66 57.41 204.86 59.28 207.94 59.28V59.28ZM209 56.5C207.4 56.5 206.25 55.7 206.25 54.33C206.25 53 207.2 52.26 209.22 52.13L212.82 51.88V53.18C212.82 55.07 211.19 56.5 209 56.5V56.5Z" fill="black"/>
<path d="M51.5 8.2207C75.4 8.2207 94.78 27.6007 94.78 51.5007C94.78 75.4007 75.4 94.7807 51.5 94.7807C27.6 94.7807 8.21997 75.4007 8.21997 51.5007C8.21997 27.6007 27.6 8.2207 51.5 8.2207Z" fill="black"/>
<path fill-rule="evenodd" clip-rule="evenodd" d="M51.5 30.5599C51.5 33.2799 53.71 35.4899 56.43 35.4899C59.15 35.4899 61.36 33.2799 61.36 30.5599C61.36 27.8399 59.15 25.6299 56.43 25.6299C53.7 25.6299 51.5 27.8399 51.5 30.5599ZM75.68 42.9999L35.03 29.4499C33.74 29.0099 32.34 29.6899 31.9 30.9799C31.46 32.2699 32.14 33.6699 33.43 34.1099C33.44 34.1099 33.46 34.1199 33.47 34.1199L49.55 39.4799C48.17 42.3299 45.73 44.0999 42.88 44.0999H30.55V31.7899C30.5429 31.1363 30.2766 30.5122 29.8098 30.0547C29.3429 29.5973 28.7136 29.3438 28.06 29.3499C26.72 29.3599 25.63 30.4499 25.62 31.7899V46.6199C25.62 46.7099 25.63 46.7999 25.65 46.8899C25.66 46.9599 25.66 47.0399 25.68 47.1099C25.7 47.1899 25.72 47.2699 25.75 47.3499C25.77 47.4199 25.8 47.4999 25.83 47.5699C25.86 47.6399 25.9 47.6999 25.94 47.7699L26.06 47.9799C26.11 48.0499 26.16 48.0999 26.21 48.1599C26.26 48.2199 26.31 48.2799 26.37 48.3399C26.43 48.3999 26.49 48.4399 26.55 48.4899C26.61 48.5399 26.67 48.5899 26.74 48.6399C26.81 48.6899 26.87 48.7099 26.94 48.7499C27.01 48.7899 27.09 48.8299 27.17 48.8599C27.23 48.8899 27.3 48.8999 27.37 48.9199C27.46 48.9499 27.55 48.9699 27.64 48.9899C27.65 48.9899 27.67 48.9999 27.68 48.9999L38.62 50.8199L40.41 61.5499V74.8999C40.4171 75.5535 40.6833 76.1775 41.1502 76.635C41.6171 77.0925 42.2464 77.346 42.9 77.3399C44.24 77.3299 45.33 76.2399 45.34 74.8999V52.5299C51.1 51.6299 56.05 47.6699 58.09 42.3299L74.13 47.6799C75.42 48.1099 76.82 47.4099 77.25 46.1199C77.68 44.8299 76.98 43.4299 75.68 42.9999Z" fill="#A6FF00"/>
</svg>
